<?xml version="1.0" standalone="no"?>
<!DOCTYPE svg PUBLIC "-//W3C//DTD SVG 20010904//EN"
 "http://www.w3.org/TR/2001/REC-SVG-20010904/DTD/svg10.dtd">
<svg version="1.0" xmlns="http://www.w3.org/2000/svg"
 width="2568.000000pt" height="722.000000pt" viewBox="0 0 2568.000000 722.000000"
 preserveAspectRatio="xMidYMid meet">

<g transform="translate(0.000000,722.000000) scale(0.100000,-0.100000)"
fill="#000000" stroke="none">
<path d="M3495 7049 c-11 -7 -58 -49 -105 -93 -97 -93 -136 -114 -278 -150
-189 -48 -266 -102 -330 -234 -44 -88 -76 -116 -148 -126 -61 -8 -117 -41
-211 -126 -42 -37 -85 -73 -97 -78 -12 -6 -48 -22 -81 -37 -106 -46 -146 -100
-199 -265 -31 -100 -61 -156 -96 -181 -14 -11 -58 -23 -99 -29 -91 -13 -154
-45 -239 -124 -52 -49 -71 -77 -108 -155 -80 -171 -89 -185 -123 -208 -19 -13
-50 -27 -70 -33 -59 -16 -129 -66 -161 -116 -35 -55 -105 -264 -119 -355 -26
-163 45 -323 184 -419 65 -45 254 -135 340 -163 272 -88 478 -117 837 -117
212 0 326 -7 627 -40 121 -13 255 -58 259 -87 7 -46 -10 -48 -347 -47 -326 1
-413 8 -675 54 -132 24 -280 26 -384 4 -125 -25 -312 -91 -369 -130 -65 -45
-118 -122 -137 -199 -8 -33 -32 -127 -53 -210 -61 -247 -52 -335 48 -445 86
-94 99 -168 54 -301 -37 -108 -36 -209 3 -292 16 -34 54 -90 85 -124 70 -78
101 -131 122 -208 45 -167 62 -191 269 -405 321 -329 414 -436 457 -527 55
-116 80 -132 287 -182 107 -27 135 -47 162 -119 12 -31 27 -63 33 -71 41 -49
216 -123 403 -170 199 -50 353 -95 382 -110 12 -6 35 -37 51 -69 16 -31 40
-67 53 -79 83 -77 249 -68 344 19 98 90 153 219 269 625 90 314 197 641 272
832 184 468 596 1155 913 1526 165 192 337 335 404 335 18 0 31 22 40 65 6 28
3 33 -27 47 -18 9 -110 88 -203 176 -351 331 -660 687 -863 996 -138 210 -140
213 -296 701 -58 182 -124 386 -146 455 -34 106 -112 305 -225 576 -33 79
-114 186 -170 225 -24 17 -126 67 -227 111 -190 85 -267 104 -312 77z m184
-106 c18 -15 29 -54 60 -213 51 -256 171 -730 226 -889 54 -158 271 -704 315
-791 18 -36 56 -103 85 -150 66 -108 108 -190 96 -190 -12 0 -198 312 -259
435 -102 205 -225 502 -321 772 -75 215 -102 306 -191 658 -39 154 -78 298
-86 320 -14 36 -14 40 2 52 24 18 48 16 73 -4z m-134 -155 c35 -152 116 -444
192 -693 57 -186 272 -726 358 -900 36 -71 101 -197 145 -280 44 -82 80 -152
80 -155 -1 -9 -41 45 -97 130 -116 175 -351 628 -420 810 -47 124 -174 495
-204 598 -17 58 -48 181 -70 276 -22 94 -48 197 -59 229 -26 76 -26 112 2 131
13 9 26 12 31 7 5 -5 24 -74 42 -153z m284 78 c20 -24 50 -125 72 -244 71
-395 156 -681 347 -1177 169 -438 324 -730 554 -1042 55 -76 23 -67 -38 10
-264 329 -473 736 -679 1322 -133 378 -183 551 -220 770 -9 55 -30 155 -47
223 -16 68 -27 130 -24 138 7 18 20 18 35 0z m-427 -96 c4 -19 16 -86 27 -148
12 -62 57 -224 101 -360 43 -136 91 -290 105 -342 33 -119 82 -237 152 -362
30 -53 67 -130 83 -171 39 -101 87 -196 163 -319 94 -152 144 -245 123 -228
-34 27 -220 319 -344 540 -121 216 -339 778 -426 1098 -74 274 -78 337 -18
330 22 -2 28 -10 34 -38z m595 20 c43 -26 52 -46 64 -141 5 -45 19 -123 29
-175 11 -51 28 -147 40 -212 23 -135 188 -720 256 -910 25 -70 84 -202 131
-293 47 -91 84 -171 82 -178 -2 -6 -41 62 -85 151 -200 400 -348 814 -483
1353 -38 153 -91 395 -91 415 0 15 22 12 57 -10z m-741 -130 c7 -36 26 -103
42 -150 17 -47 33 -110 37 -140 4 -30 29 -111 55 -180 27 -69 74 -192 106
-275 190 -502 406 -890 704 -1265 100 -125 105 -137 31 -65 -214 207 -481 578
-644 897 -54 104 -69 142 -181 438 -30 80 -68 178 -85 218 -45 108 -150 545
-137 577 4 11 15 15 33 13 25 -3 28 -8 39 -68z m-163 36 c8 -8 20 -50 26 -93
61 -407 329 -1079 602 -1505 189 -295 427 -563 697 -786 70 -58 71 -65 3 -26
-117 68 -351 278 -498 447 -269 310 -551 813 -701 1247 -78 228 -150 507 -167
652 -8 75 5 97 38 64z m-113 -108 c33 -196 140 -570 225 -790 31 -78 54 -146
52 -151 -3 -9 -35 57 -182 378 -168 366 -218 554 -163 612 40 42 55 31 68 -49z
m-82 -335 c136 -344 324 -719 495 -988 61 -95 239 -339 323 -443 15 -18 24
-36 20 -40 -4 -3 -15 3 -24 14 -257 317 -329 417 -480 669 -121 202 -308 571
-365 720 -81 212 -90 256 -55 255 7 -1 45 -82 86 -187z m-161 69 c9 -20 37
-94 63 -163 81 -212 313 -656 466 -891 211 -324 489 -643 751 -865 62 -52 113
-97 113 -99 0 -3 -26 13 -57 34 -350 238 -704 631 -994 1103 -156 254 -408
781 -426 893 -4 28 -2 35 13 38 30 7 54 -11 71 -50z m-112 -142 c61 -162 98
-246 176 -402 33 -65 59 -123 59 -130 0 -38 -126 195 -199 367 -28 66 -67 151
-86 189 -39 76 -46 120 -18 114 11 -2 33 -46 68 -138z m-37 -190 c219 -454
382 -714 636 -1020 l78 -95 -67 65 c-135 131 -340 401 -475 625 -177 293 -330
592 -330 644 0 22 10 33 27 29 7 -2 66 -113 131 -248z m-226 153 c10 -9 18
-20 18 -24 0 -4 29 -69 65 -144 77 -160 191 -360 285 -500 63 -94 100 -157
100 -170 0 -22 -35 17 -144 164 -122 164 -303 431 -380 559 -42 69 -43 101 -4
120 32 15 39 14 60 -5z m-138 -127 c97 -167 403 -600 552 -783 14 -18 24 -37
22 -43 -3 -10 -50 44 -198 225 -108 132 -185 236 -274 371 -47 71 -103 155
-125 187 -38 55 -44 87 -16 87 7 0 25 -20 39 -44z m-26 -319 c170 -263 362
-497 641 -781 156 -159 190 -198 141 -160 -90 68 -375 355 -496 499 -171 205
-394 510 -394 540 0 8 8 15 18 15 11 -1 44 -42 90 -113z m-73 -94 c152 -217
316 -420 503 -623 135 -145 65 -91 -98 77 -149 152 -262 286 -405 479 -92 123
-103 143 -88 157 13 14 21 5 88 -90z m-145 5 c21 -29 73 -98 114 -153 41 -55
132 -167 201 -249 70 -81 123 -147 117 -145 -39 14 -400 365 -515 501 -50 58
-52 73 -13 88 41 17 56 10 96 -42z m-165 -65 c154 -173 313 -338 453 -469 190
-178 201 -189 182 -179 -41 22 -115 79 -305 230 -274 219 -475 395 -475 417 0
21 46 58 73 58 13 0 41 -22 72 -57z m-106 -151 c107 -98 283 -243 423 -351
108 -82 124 -98 115 -108 -10 -9 -658 439 -669 463 -8 18 -7 29 6 49 9 14 21
25 27 25 6 0 50 -35 98 -78z m-129 -104 c33 -27 438 -300 560 -377 218 -138
449 -274 578 -340 132 -67 170 -91 141 -91 -26 0 -648 325 -929 485 -415 236
-441 256 -411 321 13 30 26 30 61 2z m0 -204 c150 -90 462 -267 690 -389 195
-104 267 -144 259 -145 -24 -1 -499 215 -762 346 -194 97 -427 225 -427 234 0
13 45 29 80 29 27 1 65 -17 160 -75z m-217 -60 c50 -30 220 -119 377 -196 157
-77 287 -142 289 -144 2 -2 2 -6 -1 -9 -3 -3 -38 10 -79 29 -41 19 -218 98
-394 176 -176 78 -326 147 -333 154 -19 18 -4 46 24 46 14 0 66 -25 117 -56z
m3397 -91 c133 -237 370 -521 814 -980 39 -40 66 -73 61 -73 -16 0 -174 122
-270 209 -148 133 -314 331 -428 507 -95 147 -228 394 -213 394 2 0 19 -26 36
-57z m-3463 -19 c54 -25 181 -82 283 -126 254 -110 471 -210 466 -215 -2 -2
-93 30 -202 72 -110 42 -269 101 -354 132 -212 75 -320 126 -320 151 0 43 7
42 127 -14z m61 -165 c210 -87 517 -200 827 -306 177 -60 215 -76 204 -87 -13
-13 -1070 318 -1196 375 -52 23 -63 32 -63 51 0 21 16 48 28 48 2 0 92 -37
200 -81z m-142 -107 c97 -40 364 -128 673 -221 145 -44 266 -82 269 -85 16
-17 -86 2 -416 79 -580 135 -588 138 -612 195 -12 30 -8 60 8 60 5 0 40 -13
78 -28z m144 -212 c223 -62 398 -104 720 -170 517 -107 566 -118 530 -119 -88
-3 -951 163 -1230 235 -142 38 -172 51 -191 85 -9 18 -8 20 8 15 10 -3 83 -24
163 -46z m1317 -296 c-3 -3 -12 -4 -19 -1 -8 3 -5 6 6 6 11 1 17 -2 13 -5z
m-427 -294 c172 -35 163 -41 -55 -34 -229 7 -316 15 -297 28 50 31 213 34 352
6z m28 -117 c173 -3 307 -10 299 -14 -70 -39 -643 -38 -892 2 -136 22 -105 30
90 25 105 -3 331 -9 503 -13z m-703 -93 c33 -6 151 -15 262 -19 182 -7 226
-12 212 -25 -7 -7 -478 -28 -539 -24 -43 2 -56 7 -58 21 -5 27 26 69 46 63 9
-3 44 -10 77 -16z m510 -211 c-57 -19 -251 -51 -495 -83 -63 -8 -134 -18 -157
-22 -39 -6 -43 -5 -43 15 0 26 -11 24 325 61 154 17 305 35 335 39 89 13 99
10 35 -10z m2404 -102 c-161 -122 -445 -363 -655 -559 -383 -356 -1006 -1049
-1353 -1506 -60 -79 -64 -83 -84 -69 -43 28 -33 56 54 167 143 182 510 594
795 895 352 370 926 878 1208 1069 37 25 68 27 35 3z m-2169 -96 c0 -13 -335
-133 -532 -190 -98 -28 -200 -60 -228 -71 -65 -26 -106 -26 -120 -1 -5 11 -10
22 -10 25 0 16 95 50 201 71 140 29 432 103 569 144 105 32 120 35 120 22z
m1009 -6 c-6 -6 -320 -193 -394 -235 -197 -111 -596 -372 -1039 -678 -120 -84
-224 -152 -230 -152 -17 0 -58 69 -54 93 3 24 136 116 343 239 66 39 192 114
280 167 88 52 234 134 325 181 265 139 398 209 513 272 131 72 227 118 246
118 8 0 12 -2 10 -5z m276 -31 c-11 -8 -121 -85 -245 -171 -423 -293 -827
-609 -1268 -992 -74 -64 -158 -137 -189 -163 -30 -27 -63 -48 -73 -48 -22 0
-60 50 -60 79 0 22 13 34 219 195 228 178 865 641 1091 793 134 89 480 308
500 316 31 12 46 7 25 -9z m155 -3 c0 -4 -26 -25 -57 -46 -134 -88 -441 -314
-588 -434 -446 -361 -565 -463 -924 -795 -129 -119 -242 -216 -252 -216 -21 0
-49 26 -49 45 0 23 383 353 751 646 335 268 401 317 899 670 185 132 220 152
220 130z m669 -18 c-8 -9 -66 -61 -129 -117 -510 -446 -1008 -996 -1638 -1809
-123 -158 -158 -197 -177 -197 -35 0 -48 31 -28 61 36 52 418 522 544 669 430
502 1007 1079 1358 1359 63 50 97 67 70 34z m-1999 -7 c-28 -27 -441 -201
-774 -328 -136 -51 -145 -51 -146 -1 0 39 25 49 330 138 69 20 215 72 325 115
247 96 225 88 255 89 21 1 22 -1 10 -13z m2870 -23 c-5 -10 -84 -130 -175
-268 -435 -657 -612 -1050 -861 -1913 -46 -162 -98 -328 -114 -370 -29 -75
-90 -187 -90 -167 0 24 96 376 165 606 258 857 563 1481 987 2018 81 102 114
138 88 94z m-2855 -73 c-9 -14 -149 -84 -200 -100 -22 -7 -143 -62 -270 -123
-126 -60 -266 -123 -310 -139 -44 -16 -85 -34 -92 -40 -20 -16 -58 -5 -58 16
0 16 39 35 210 103 359 144 629 254 665 274 39 20 65 24 55 9z m725 -34 c0 -6
-172 -125 -420 -291 -213 -143 -481 -340 -804 -594 -166 -130 -213 -162 -225
-154 -39 24 -12 97 51 140 18 13 69 47 113 77 44 30 211 144 370 254 302 207
410 277 710 461 159 98 205 122 205 107z m780 -10 c0 -2 -91 -86 -202 -187
-112 -101 -261 -240 -332 -309 -269 -262 -699 -732 -989 -1082 -54 -65 -104
-118 -112 -118 -29 0 -45 13 -45 36 0 68 831 943 1235 1301 341 301 445 385
445 359z m-300 -20 c-8 -7 -105 -87 -215 -176 -433 -352 -676 -571 -1101 -992
-143 -142 -266 -258 -272 -258 -17 0 -52 37 -52 55 0 29 373 371 775 711 299
253 841 674 868 674 7 0 6 -5 -3 -14z m1397 -13 c-3 -5 -63 -103 -135 -219
-71 -116 -168 -281 -216 -366 -260 -472 -534 -1206 -712 -1913 -20 -77 -40
-145 -46 -152 -15 -18 -57 -16 -64 2 -7 17 65 314 121 500 170 567 392 1114
608 1500 102 181 352 559 415 628 25 26 38 35 29 20z m-2497 -58 c0 -2 -44
-30 -97 -61 -54 -31 -156 -92 -228 -134 -71 -42 -196 -116 -277 -163 -80 -48
-202 -123 -269 -167 -73 -47 -132 -80 -144 -78 -11 2 -26 16 -33 31 -12 24
-11 31 1 50 9 14 129 77 313 166 165 79 373 183 464 231 91 49 188 97 215 109
58 23 55 22 55 16z m1085 -58 c-411 -358 -876 -821 -1199 -1192 -180 -207
-226 -255 -247 -255 -20 0 -69 55 -69 77 0 41 730 736 1140 1085 241 205 405
337 420 337 8 0 -12 -23 -45 -52z m-1460 -34 c-33 -15 -109 -52 -170 -84 -220
-113 -471 -238 -500 -249 l-30 -10 25 20 c86 71 457 258 633 321 101 35 122
36 42 2z m1939 -60 c-21 -27 -86 -101 -144 -166 -252 -284 -310 -351 -435
-507 -219 -274 -470 -617 -672 -920 -60 -91 -117 -171 -126 -179 -39 -32 -137
-31 -150 2 -9 24 554 732 827 1042 130 147 250 279 326 360 119 126 403 415
408 415 2 0 -13 -21 -34 -47z m191 -22 c3 -5 -32 -54 -78 -108 -372 -440 -680
-881 -1059 -1513 -90 -151 -177 -299 -193 -327 -30 -56 -51 -66 -80 -37 -20
20 -15 34 47 142 321 557 824 1257 1232 1716 58 66 106 123 106 128 0 11 17
10 25 -1z m91 -158 c-80 -107 -258 -366 -332 -483 -220 -352 -495 -870 -680
-1284 -94 -209 -104 -222 -156 -204 -55 19 -54 26 28 190 314 629 737 1307
1082 1736 76 94 123 130 58 45z m213 -95 c-6 -13 -45 -82 -85 -155 -209 -376
-424 -891 -576 -1378 -63 -203 -155 -525 -164 -570 -16 -88 -39 -5 -31 113 5
85 25 154 148 512 152 442 304 791 494 1135 158 287 205 364 223 365 1 0 -3
-10 -9 -22z m-170 -120 c-7 -12 -36 -62 -66 -111 -196 -324 -501 -1041 -632
-1487 -82 -278 -85 -283 -144 -261 -41 16 -50 42 -31 98 133 393 379 936 632
1393 103 187 230 390 243 390 6 0 5 -9 -2 -22z m-247 -240 c-172 -289 -264
-472 -472 -938 -99 -223 -160 -373 -233 -579 -16 -44 -38 -58 -74 -45 -44 15
-40 46 27 199 176 404 561 1119 772 1433 79 118 67 75 -20 -70z m-605 -130
c-255 -340 -553 -785 -681 -1020 -44 -80 -61 -96 -84 -81 -10 5 -18 17 -20 25
-7 37 474 727 727 1043 98 122 229 275 236 275 2 0 -78 -109 -178 -242z m377
160 c-4 -7 -49 -76 -99 -153 -266 -406 -426 -681 -648 -1115 -108 -210 -118
-225 -145 -228 -18 -2 -36 4 -46 13 -15 16 -12 25 45 133 108 202 297 511 524
857 139 210 333 487 348 497 18 12 29 9 21 -4z"/>
<path d="M16178 5453 c-17 -4 -18 -72 -18 -1244 l0 -1239 40 0 40 0 0 654 0
654 59 79 c66 89 175 197 241 238 24 15 80 42 125 58 73 28 91 31 205 31 114
1 130 -1 180 -25 78 -37 125 -81 160 -152 58 -120 60 -137 60 -869 l0 -668 40
0 40 0 0 653 c0 358 -5 684 -10 724 -25 195 -121 327 -277 386 -85 31 -288 31
-388 0 -141 -45 -282 -149 -393 -291 l-42 -54 0 536 0 536 -22 -1 c-13 -1 -31
-3 -40 -6z"/>
<path d="M18287 5402 c-22 -25 -21 -75 1 -95 22 -20 71 -22 95 -4 48 36 16
117 -47 117 -19 0 -40 -8 -49 -18z"/>
<path d="M7276 5325 c-243 -46 -407 -158 -495 -336 -46 -94 -61 -159 -61 -263
1 -245 135 -427 406 -552 42 -20 149 -60 238 -89 297 -98 400 -147 471 -226
66 -73 80 -118 80 -249 0 -109 -2 -118 -33 -185 -55 -116 -154 -191 -302 -232
-93 -25 -287 -22 -395 6 -101 26 -245 97 -331 162 l-65 49 -48 -52 c-85 -94
-111 -125 -111 -134 1 -14 104 -95 181 -142 90 -55 196 -98 312 -125 127 -29
422 -31 542 -4 344 80 539 298 562 627 12 187 -51 363 -174 481 -105 101 -230
167 -444 234 -466 146 -581 233 -583 440 -1 125 36 206 125 271 78 57 146 76
285 82 100 4 135 1 205 -17 98 -24 197 -71 289 -136 l65 -45 30 34 c17 19 52
60 80 91 l50 58 -39 33 c-119 103 -268 177 -421 209 -113 24 -320 28 -419 10z"/>
<path d="M11030 5175 c-58 -7 -111 -14 -117 -14 -9 -1 -13 -52 -15 -203 l-3
-203 -152 -3 -153 -3 0 -109 0 -109 153 -3 152 -3 5 -630 c5 -617 6 -631 27
-687 39 -103 108 -185 193 -228 139 -71 386 -65 554 14 98 46 96 40 36 147
-29 52 -53 95 -55 97 -1 1 -33 -12 -71 -30 -58 -27 -83 -33 -159 -36 -79 -3
-96 0 -135 20 -56 29 -85 79 -100 173 -7 45 -9 266 -8 615 l3 545 197 3 c195
2 198 3 202 25 8 33 26 164 26 181 0 13 -29 16 -212 18 l-213 3 -3 218 -2 217
-23 -1 c-12 -1 -69 -7 -127 -14z"/>
<path d="M9246 4779 c-144 -20 -394 -92 -403 -116 -4 -9 51 -185 63 -201 1 -2
51 10 111 27 172 49 240 61 364 61 157 0 232 -22 299 -89 65 -65 81 -116 87
-278 l6 -133 -199 0 c-214 0 -353 -15 -464 -51 -265 -85 -402 -267 -401 -533
1 -157 45 -280 136 -375 101 -106 246 -161 422 -161 195 0 341 56 461 177 40
41 75 73 76 72 2 -2 13 -26 26 -54 48 -100 148 -172 268 -191 l39 -6 31 87
c18 48 32 93 32 101 0 7 -18 23 -39 34 -37 19 -67 51 -87 95 -5 11 -11 263
-15 560 -5 471 -8 548 -23 599 -54 184 -161 295 -339 352 -70 22 -104 26 -232
29 -82 2 -181 0 -219 -6z m524 -1132 l0 -214 -38 -59 c-55 -84 -149 -168 -217
-193 -164 -61 -343 -37 -426 57 -59 67 -74 114 -74 237 0 100 3 115 27 166 63
128 179 193 378 212 19 2 106 5 193 5 l157 2 0 -213z"/>
<path d="M12679 4771 c-324 -71 -537 -334 -590 -728 -18 -139 -7 -386 24 -504
50 -191 105 -297 212 -404 152 -152 333 -214 585 -202 209 10 350 68 480 197
117 116 192 260 233 450 30 137 30 433 0 570 -42 197 -138 372 -255 469 -72
60 -196 124 -283 147 -96 25 -302 28 -406 5z m304 -226 c245 -64 357 -278 357
-686 0 -232 -36 -396 -111 -508 -51 -76 -97 -117 -177 -154 -53 -25 -81 -31
-158 -35 -300 -16 -468 171 -505 558 -29 306 46 613 177 729 111 97 271 134
417 96z"/>
<path d="M14820 4744 c-86 -18 -212 -82 -278 -139 -200 -177 -304 -520 -272
-894 36 -412 222 -678 530 -757 79 -21 250 -23 335 -5 75 16 227 89 280 135
l40 34 -24 26 -24 25 -36 -28 c-58 -46 -161 -98 -227 -115 -81 -21 -247 -21
-328 0 -187 48 -338 201 -411 415 -96 282 -76 669 47 918 50 100 160 219 245
264 198 105 473 84 647 -49 l47 -35 19 23 c11 13 19 26 20 30 0 13 -92 78
-154 108 -117 57 -309 76 -456 44z"/>
<path d="M19830 4744 c-126 -27 -272 -118 -356 -223 -26 -31 -50 -57 -55 -59
-5 -2 -10 56 -11 130 l-3 133 -32 3 -33 3 0 -1210 0 -1211 28 0 c15 0 33 4 39
8 10 6 13 113 15 455 l3 447 36 -44 c84 -104 210 -187 340 -222 87 -24 253
-24 334 0 196 58 340 217 414 458 72 236 71 662 -1 898 -70 229 -224 389 -420
435 -78 18 -212 18 -298 -1z m283 -69 c139 -36 245 -124 309 -257 152 -311
138 -893 -28 -1170 -38 -63 -136 -159 -192 -187 -70 -36 -143 -51 -241 -51
-184 0 -288 47 -438 196 l-103 102 0 527 0 528 57 70 c104 126 227 209 359
241 78 19 206 19 277 1z"/>
<path d="M18300 3850 l0 -880 35 0 35 0 0 880 0 880 -35 0 -35 0 0 -880z"/>
<path d="M24415 3827 c-16 -8 -39 -24 -49 -36 -26 -28 -46 -27 -46 4 l0 25
-1456 0 -1457 0 6 -82 c4 -46 7 -102 7 -124 l0 -41 1068 -9 1067 -9 0 -45 0
-45 -173 -3 -173 -2 3 -83 3 -82 43 -20 c69 -32 66 -82 -7 -104 l-41 -12 0
-193 c0 -168 2 -195 16 -200 32 -12 272 -7 281 7 4 6 10 71 13 142 l5 130 39
3 c86 7 85 9 88 -146 l3 -137 115 0 115 0 3 129 c1 71 7 135 11 140 7 9 77 13
123 7 4 -1 9 -63 10 -138 l3 -138 148 -3 c81 -1 147 1 147 5 1 19 1 369 0 380
0 7 -18 17 -41 23 -43 12 -54 27 -45 63 4 16 19 29 45 39 45 18 55 44 49 133
l-3 50 -173 3 -173 2 3 48 3 47 150 1 c83 1 156 2 163 3 6 1 12 12 12 26 0 31
20 32 46 4 66 -73 174 -63 236 22 40 54 18 155 -43 202 -34 25 -105 31 -144
14z"/>
</g>
</svg>
